<svg width="26" height="25" viewBox="0 0 26 25" fill="none" xmlns="http://www.w3.org/2000/svg">
<g opacity="0.3">
<path fill-rule="evenodd" clip-rule="evenodd" d="M0.162354 12.5C0.162354 5.597 5.75935 0 12.6624 0C19.5654 0 25.1624 5.597 25.1624 12.5C25.1624 19.403 19.5654 25 12.6624 25C5.75935 25 0.162354 19.403 0.162354 12.5ZM21.1624 12.5C21.1624 7.813 17.3494 4 12.6624 4C7.97535 4 4.16235 7.813 4.16235 12.5C4.16235 17.187 7.97535 21 12.6624 21C17.3494 21 21.1624 17.187 21.1624 12.5Z" fill="#B5B5B5"/>
<path d="M12.6624 17C15.1476 17 17.1624 14.9853 17.1624 12.5C17.1624 10.0147 15.1476 8 12.6624 8C10.1771 8 8.16235 10.0147 8.16235 12.5C8.16235 14.9853 10.1771 17 12.6624 17Z" fill="#B5B5B5"/>
</g>
</svg>
